@startuml

class CglibSubclassingInstantiationStrategy{
   -{static,final}  PASSTHROUGH
   -{static,final}  LOOKUP_OVERRIDE
   -{static,final}  METHOD_REPLACER
   Object instantiateWithMethodInjection(RootBeanDefinition bd, @Nullable String beanName, BeanFactory owner)
   Object instantiateWithMethodInjection(RootBeanDefinition bd, @Nullable String beanName, BeanFactory owner, @Nullable Constructor<?> ctor, Object... args)
}
class CglibSubclassCreator{
  -{static,final} Class<?>[] CALLBACK_TYPES
  -{final} RootBeanDefinition beanDefinition
  -{final} BeanFactory owner
  + Object instantiate(@Nullable Constructor<?> ctor, Object... args)
  - Class<?> createEnhancedSubclass(RootBeanDefinition beanDefinition)
}
class LookupOverrideMethodInterceptor{
    Object intercept(Object obj, Method method, Object[] args, MethodProxy mp) throws Throwable
}
class ReplaceOverrideMethodInterceptor{
    Object intercept(Object obj, Method method, Object[] args, MethodProxy mp) throws Throwable
}
class CglibIdentitySupport{
  -{final} RootBeanDefinition beanDefinition
  + boolean equals(Object other)
  + int hashCode()

}
class SimpleInstantiationStrategy{
    -{static,final} ThreadLocal<Method> currentlyInvokedFactoryMethod
    +{static}  Method getCurrentlyInvokedFactoryMethod()
    + Object instantiate(RootBeanDefinition bd, @Nullable String beanName, BeanFactory owner)
      Object instantiateWithMethodInjection(RootBeanDefinition bd, @Nullable String beanName, BeanFactory owner)
    + Object instantiate(RootBeanDefinition bd, @Nullable String beanName, BeanFactory owner, final Constructor<?> ctor, Object... args)
      Object instantiateWithMethodInjection(RootBeanDefinition bd, @Nullable String beanName,BeanFactory owner, @Nullable Constructor<?> ctor, Object... args)
    + Object instantiate(RootBeanDefinition bd, @Nullable String beanName, BeanFactory owner,@Nullable Object factoryBean, final Method factoryMethod, Object... args)

}
interface InstantiationStrategy{
   Object instantiate(RootBeanDefinition bd, @Nullable String beanName, BeanFactory owner) throws BeansException
   Object instantiate(RootBeanDefinition bd, @Nullable String beanName, BeanFactory owner, Constructor<?> ctor, Object... args) throws BeansException
   Object instantiate(RootBeanDefinition bd, @Nullable String beanName, BeanFactory owner, @Nullable Object factoryBean, Method factoryMethod, Object... args) throws BeansException
}
CglibSubclassingInstantiationStrategy --|>SimpleInstantiationStrategy
SimpleInstantiationStrategy --|>InstantiationStrategy
CglibSubclassingInstantiationStrategy <--o CglibSubclassCreator
CglibSubclassCreator <--o Enhancer
CglibSubclassCreator <--o LookupOverrideMethodInterceptor
CglibSubclassCreator <--o ReplaceOverrideMethodInterceptor
LookupOverrideMethodInterceptor --|> CglibIdentitySupport
ReplaceOverrideMethodInterceptor --|> CglibIdentitySupport

@enduml